<mxfile host="app.diagrams.net" agent="Mozilla/5.0 (Windows NT 10.0; Win64; x64) AppleWebKit/537.36 (KHTML, like Gecko) Chrome/140.0.0.0 Safari/537.36" version="28.2.0" pages="2">
  <diagram name="Diagram #3 - Moderator Review Story" id="diagram3">
    <mxGraphModel dx="1348" dy="788" grid="0" gridSize="10" guides="1" tooltips="1" connect="1" arrows="1" fold="1" page="1" pageScale="1" pageWidth="1169" pageHeight="827" background="light-dark(#FFFFFF,#FFFFFF)" math="0" shadow="0">
      <root>
        <mxCell id="0" />
        <mxCell id="1" parent="0" />
        <mxCell id="kr_c7M_nK8q_R4ixeaRL-8" value="" style="endArrow=none;dashed=1;html=1;rounded=0;strokeColor=light-dark(#000000,#000000);" edge="1" parent="1">
          <mxGeometry width="50" height="50" relative="1" as="geometry">
            <mxPoint x="191" y="732" as="sourcePoint" />
            <mxPoint x="190.5" y="191" as="targetPoint" />
          </mxGeometry>
        </mxCell>
        <mxCell id="actor2" value="&lt;font style=&quot;color: light-dark(rgb(0, 0, 0), rgb(0, 0, 0)); font-size: 11px;&quot;&gt;ModerationController&lt;/font&gt;" style="shape=umlLifeline;perimeter=lifelinePerimeter;whiteSpace=wrap;html=1;container=1;collapsible=0;recursiveResize=0;outlineConnect=0;fillColor=none;strokeColor=light-dark(#000000,#000000);" parent="1" vertex="1">
          <mxGeometry x="370" y="135" width="120" height="600" as="geometry" />
        </mxCell>
        <mxCell id="actor3" value="&lt;font style=&quot;font-size: 11px; color: light-dark(rgb(0, 0, 0), rgb(0, 0, 0));&quot;&gt;StoryModel&lt;/font&gt;" style="shape=umlLifeline;perimeter=lifelinePerimeter;whiteSpace=wrap;html=1;container=1;collapsible=0;recursiveResize=0;outlineConnect=0;fillColor=none;strokeColor=light-dark(#000000,#000000);" parent="1" vertex="1">
          <mxGeometry x="620" y="135" width="100" height="600" as="geometry" />
        </mxCell>
        <mxCell id="activation2" value="" style="html=1;points=[];perimeter=orthogonalPerimeter;outlineConnect=0;targetShapes=umlLifeline;portConstraint=eastwest;strokeColor=light-dark(#000000,#000000);fillColor=light-dark(#000000,#FFFFFF);" parent="actor3" vertex="1">
          <mxGeometry x="45" y="110" width="10" height="280" as="geometry" />
        </mxCell>
        <mxCell id="actor4" value="&lt;font style=&quot;font-size: 11px; color: light-dark(rgb(0, 0, 0), rgb(0, 0, 0));&quot;&gt;EmergencyEscalationService&lt;/font&gt;" style="shape=umlLifeline;perimeter=lifelinePerimeter;whiteSpace=wrap;html=1;container=1;collapsible=0;recursiveResize=0;outlineConnect=0;fillColor=none;strokeColor=light-dark(#000000,#000000);" parent="1" vertex="1">
          <mxGeometry x="747" y="135" width="160" height="600" as="geometry" />
        </mxCell>
        <mxCell id="activation4" value="" style="html=1;points=[];perimeter=orthogonalPerimeter;outlineConnect=0;targetShapes=umlLifeline;portConstraint=eastwest;strokeColor=light-dark(#000000,#000000);fillColor=light-dark(#000000,#FFFFFF);" parent="actor4" vertex="1">
          <mxGeometry x="75" y="410" width="10" height="40" as="geometry" />
        </mxCell>
        <mxCell id="actor5" value="&lt;font style=&quot;color: light-dark(rgb(0, 0, 0), rgb(0, 0, 0));&quot;&gt;AIAnalysisResult&lt;/font&gt;" style="shape=umlLifeline;perimeter=lifelinePerimeter;whiteSpace=wrap;html=1;container=1;collapsible=0;recursiveResize=0;outlineConnect=0;fillColor=none;strokeColor=light-dark(#000000,#000000);" parent="1" vertex="1">
          <mxGeometry x="930" y="135" width="120" height="600" as="geometry" />
        </mxCell>
        <mxCell id="msg2" value="2: findPendingStories()" style="html=1;verticalAlign=bottom;endArrow=block;rounded=0;labelBackgroundColor=none;fontColor=light-dark(#000000,#000000);strokeColor=light-dark(#000000,#000000);" parent="1" target="activation2" edge="1">
          <mxGeometry relative="1" as="geometry">
            <mxPoint x="430" y="255" as="sourcePoint" />
            <mxPoint x="600" y="255" as="targetPoint" />
          </mxGeometry>
        </mxCell>
        <mxCell id="msg3" value="&lt;font style=&quot;color: light-dark(rgb(0, 0, 0), rgb(0, 0, 0));&quot;&gt;3: storyList&lt;/font&gt;" style="html=1;verticalAlign=bottom;endArrow=open;dashed=1;html=1;rounded=0;labelBackgroundColor=none;strokeColor=light-dark(#000000,#000000);entryX=1.009;entryY=0.237;entryDx=0;entryDy=0;entryPerimeter=0;" parent="1" source="activation2" target="activation1" edge="1">
          <mxGeometry relative="1" as="geometry">
            <mxPoint x="600" y="295" as="sourcePoint" />
            <mxPoint x="430" y="295" as="targetPoint" />
          </mxGeometry>
        </mxCell>
        <mxCell id="msg4" value="&lt;font style=&quot;color: light-dark(rgb(0, 0, 0), rgb(0, 0, 0));&quot;&gt;4: getAnalysisForStories(storyList)&lt;/font&gt;" style="html=1;verticalAlign=bottom;endArrow=block;rounded=0;labelBackgroundColor=none;strokeColor=light-dark(#000000,#000000);entryX=0.065;entryY=0.169;entryDx=0;entryDy=0;entryPerimeter=0;" parent="1" target="activation3" edge="1">
          <mxGeometry relative="1" as="geometry">
            <mxPoint x="430" y="335" as="sourcePoint" />
            <mxPoint x="990" y="335" as="targetPoint" />
            <mxPoint as="offset" />
          </mxGeometry>
        </mxCell>
        <mxCell id="msg5" value="&lt;font style=&quot;color: light-dark(rgb(0, 0, 0), rgb(0, 0, 0));&quot;&gt;5: analysisResults&lt;/font&gt;" style="html=1;verticalAlign=bottom;endArrow=open;dashed=1;html=1;rounded=0;labelBackgroundColor=none;strokeColor=light-dark(#000000,#000000);entryX=1.092;entryY=0.448;entryDx=0;entryDy=0;entryPerimeter=0;" parent="1" target="activation1" edge="1">
          <mxGeometry x="-0.1071" relative="1" as="geometry">
            <mxPoint x="990" y="375" as="sourcePoint" />
            <mxPoint x="430" y="375" as="targetPoint" />
            <mxPoint as="offset" />
          </mxGeometry>
        </mxCell>
        <mxCell id="msg6" value="&lt;font style=&quot;color: light-dark(rgb(0, 0, 0), rgb(0, 0, 0));&quot;&gt;6: displayStories(storyList, analysisResults)&lt;/font&gt;" style="html=1;verticalAlign=bottom;endArrow=open;dashed=1;html=1;rounded=0;exitX=0.5;exitY=0.553;exitDx=0;exitDy=0;exitPerimeter=0;labelBackgroundColor=none;strokeColor=light-dark(#000000,#000000);" parent="1" source="activation1" target="ckIXZaAyTzGgitAbMBD9-1" edge="1">
          <mxGeometry relative="1" as="geometry">
            <mxPoint x="430" y="415" as="sourcePoint" />
            <mxPoint x="250" y="415" as="targetPoint" />
          </mxGeometry>
        </mxCell>
        <mxCell id="msg7" value="&lt;font style=&quot;color: light-dark(rgb(0, 0, 0), rgb(0, 0, 0));&quot;&gt;7: approveStory(storyId)&lt;/font&gt;" style="html=1;verticalAlign=bottom;endArrow=block;rounded=0;entryX=-0.057;entryY=0.71;entryDx=0;entryDy=0;entryPerimeter=0;labelBackgroundColor=none;strokeColor=light-dark(#000000,#000000);" parent="1" source="ckIXZaAyTzGgitAbMBD9-1" target="activation1" edge="1">
          <mxGeometry relative="1" as="geometry">
            <mxPoint x="200" y="475" as="sourcePoint" />
            <mxPoint x="420" y="475" as="targetPoint" />
          </mxGeometry>
        </mxCell>
        <mxCell id="msg8" value="&lt;font style=&quot;color: light-dark(rgb(0, 0, 0), rgb(0, 0, 0));&quot;&gt;8: updateStoryStatus(storyId, &quot;published&quot;)&lt;/font&gt;" style="html=1;verticalAlign=bottom;endArrow=block;rounded=0;labelBackgroundColor=none;strokeColor=light-dark(#000000,#000000);" parent="1" target="activation2" edge="1">
          <mxGeometry relative="1" as="geometry">
            <mxPoint x="430" y="515" as="sourcePoint" />
            <mxPoint x="600" y="515" as="targetPoint" />
          </mxGeometry>
        </mxCell>
        <mxCell id="msg9" value="&lt;font style=&quot;color: light-dark(rgb(0, 0, 0), rgb(0, 0, 0));&quot;&gt;9: [if emergency] processEmergency(story)&lt;/font&gt;" style="html=1;verticalAlign=bottom;endArrow=block;rounded=0;strokeColor=light-dark(#000000,#000000);labelBackgroundColor=none;" parent="1" target="activation4" edge="1">
          <mxGeometry relative="1" as="geometry">
            <mxPoint x="430" y="555" as="sourcePoint" />
            <mxPoint x="790" y="555" as="targetPoint" />
          </mxGeometry>
        </mxCell>
        <mxCell id="activation1" value="" style="html=1;points=[];perimeter=orthogonalPerimeter;outlineConnect=0;targetShapes=umlLifeline;portConstraint=eastwest;newEdgeStyle={&quot;edgeStyle&quot;:&quot;elbowEdgeStyle&quot;,&quot;elbow&quot;:&quot;vertical&quot;,&quot;curved&quot;:0,&quot;rounded&quot;:0};strokeColor=light-dark(#000000,#000000);fillColor=light-dark(#000000,#FFFFFF);" parent="1" vertex="1">
          <mxGeometry x="425" y="205" width="10" height="380" as="geometry" />
        </mxCell>
        <mxCell id="activation3" value="" style="html=1;points=[];perimeter=orthogonalPerimeter;outlineConnect=0;targetShapes=umlLifeline;portConstraint=eastwest;strokeColor=light-dark(#000000,#000000);fillColor=light-dark(#000000,#FFFFFF);" parent="1" vertex="1">
          <mxGeometry x="985" y="325" width="10" height="60" as="geometry" />
        </mxCell>
        <mxCell id="title1" value="&lt;font style=&quot;color: light-dark(rgb(0, 0, 0), rgb(0, 0, 0));&quot;&gt;Sequence Diagram #3: Moderator Review Story&lt;/font&gt;" style="text;html=1;strokeColor=none;fillColor=none;align=center;verticalAlign=middle;whiteSpace=wrap;rounded=0;fontSize=16;fontStyle=1;" parent="1" vertex="1">
          <mxGeometry x="305" y="93" width="667" height="20" as="geometry" />
        </mxCell>
        <mxCell id="msg1" value="&lt;span&gt;&lt;font style=&quot;color: light-dark(rgb(0, 0, 0), rgb(0, 0, 0));&quot;&gt;1: getStoriesForReview()&lt;/font&gt;&lt;/span&gt;" style="html=1;verticalAlign=bottom;endArrow=block;rounded=0;strokeColor=light-dark(#000000,#000000);entryX=-0.015;entryY=0.027;entryDx=0;entryDy=0;entryPerimeter=0;labelBackgroundColor=none;" parent="1" source="ckIXZaAyTzGgitAbMBD9-1" target="activation1" edge="1">
          <mxGeometry relative="1" as="geometry">
            <mxPoint x="250" y="215" as="sourcePoint" />
            <mxPoint x="420" y="215" as="targetPoint" />
          </mxGeometry>
        </mxCell>
        <mxCell id="kr_c7M_nK8q_R4ixeaRL-1" value="Actor" style="shape=umlActor;verticalLabelPosition=bottom;verticalAlign=top;html=1;outlineConnect=0;strokeColor=light-dark(#000000,#000000);fillColor=light-dark(#FFFFFF,#7EA6E0);" vertex="1" parent="1">
          <mxGeometry x="177.5" y="135" width="25" height="40" as="geometry" />
        </mxCell>
        <mxCell id="ckIXZaAyTzGgitAbMBD9-1" value="" style="html=1;points=[];perimeter=orthogonalPerimeter;outlineConnect=0;targetShapes=umlLifeline;portConstraint=eastwest;newEdgeStyle={&quot;edgeStyle&quot;:&quot;elbowEdgeStyle&quot;,&quot;elbow&quot;:&quot;vertical&quot;,&quot;curved&quot;:0,&quot;rounded&quot;:0};strokeColor=light-dark(#000000,#000000);fillColor=light-dark(#000000,#FFFFFF);" parent="1" vertex="1">
          <mxGeometry x="185" y="205" width="10" height="380" as="geometry" />
        </mxCell>
        <mxCell id="kr_c7M_nK8q_R4ixeaRL-7" value="&lt;span style=&quot;font-family: Helvetica; font-size: 11px; font-style: normal; font-variant-ligatures: normal; font-variant-caps: normal; font-weight: 400; letter-spacing: normal; orphans: 2; text-indent: 0px; text-transform: none; widows: 2; word-spacing: 0px; -webkit-text-stroke-width: 0px; white-space: normal; text-decoration-thickness: initial; text-decoration-style: initial; text-decoration-color: initial; float: none; display: inline !important;&quot;&gt;Moderator&lt;/span&gt;" style="text;whiteSpace=wrap;html=1;verticalAlign=middle;fontColor=light-dark(#000000,#000000);labelBackgroundColor=light-dark(#FFFFFF,#FFFFFF);align=center;" vertex="1" parent="1">
          <mxGeometry x="160.5" y="175" width="59" height="16" as="geometry" />
        </mxCell>
      </root>
    </mxGraphModel>
  </diagram>
  <diagram name="Diagram #4 - Anonymous User View Stories" id="diagram4">
    <mxGraphModel dx="1213" dy="709" grid="0" gridSize="10" guides="1" tooltips="1" connect="1" arrows="1" fold="1" page="1" pageScale="1" pageWidth="827" pageHeight="1169" background="light-dark(#FFFFFF,#FFFFFF)" math="0" shadow="0">
      <root>
        <mxCell id="0" />
        <mxCell id="1" parent="0" />
        <mxCell id="actor2" value="&lt;font style=&quot;color: light-dark(rgb(0, 0, 0), rgb(0, 0, 0));&quot;&gt;PublicStoryController&lt;/font&gt;" style="shape=umlLifeline;perimeter=lifelinePerimeter;whiteSpace=wrap;html=1;container=1;collapsible=0;recursiveResize=0;outlineConnect=0;fillColor=none;strokeColor=light-dark(#000000,#000000);" parent="1" vertex="1">
          <mxGeometry x="269" y="404" width="140" height="400" as="geometry" />
        </mxCell>
        <mxCell id="actor3" value="&lt;font style=&quot;color: light-dark(rgb(0, 0, 0), rgb(0, 0, 0));&quot;&gt;PublishedStoryModel&lt;/font&gt;" style="shape=umlLifeline;perimeter=lifelinePerimeter;whiteSpace=wrap;html=1;container=1;collapsible=0;recursiveResize=0;outlineConnect=0;fillColor=none;strokeColor=light-dark(#000000,#000000);" parent="1" vertex="1">
          <mxGeometry x="449" y="404" width="140" height="400" as="geometry" />
        </mxCell>
        <mxCell id="activation2" value="" style="html=1;points=[];perimeter=orthogonalPerimeter;outlineConnect=0;targetShapes=umlLifeline;portConstraint=eastwest;fontColor=light-dark(#000000,#000000);strokeColor=light-dark(#000000,#000000);fillColor=light-dark(#000000,#FFFFFF);" parent="actor3" vertex="1">
          <mxGeometry x="65" y="110" width="10" height="60" as="geometry" />
        </mxCell>
        <mxCell id="actor4" value="&lt;font style=&quot;color: light-dark(rgb(0, 0, 0), rgb(0, 0, 0));&quot;&gt;ContentWarningService&lt;/font&gt;" style="shape=umlLifeline;perimeter=lifelinePerimeter;whiteSpace=wrap;html=1;container=1;collapsible=0;recursiveResize=0;outlineConnect=0;fillColor=none;strokeColor=light-dark(#000000,#000000);" parent="1" vertex="1">
          <mxGeometry x="629" y="404" width="150" height="400" as="geometry" />
        </mxCell>
        <mxCell id="activation3" value="" style="html=1;points=[];perimeter=orthogonalPerimeter;outlineConnect=0;targetShapes=umlLifeline;portConstraint=eastwest;fontColor=light-dark(#000000,#000000);strokeColor=light-dark(#000000,#000000);fillColor=light-dark(#000000,#FFFFFF);" parent="actor4" vertex="1">
          <mxGeometry x="70" y="190" width="10" height="60" as="geometry" />
        </mxCell>
        <mxCell id="msg2" value="2: findPublishedStories()" style="html=1;verticalAlign=bottom;endArrow=block;rounded=0;entryX=-0.06;entryY=0.167;entryDx=0;entryDy=0;entryPerimeter=0;strokeColor=light-dark(#000000,#000000);fontColor=light-dark(#000000,#000000);labelBackgroundColor=none;" parent="1" target="activation2" edge="1">
          <mxGeometry relative="1" as="geometry">
            <mxPoint x="339" y="524" as="sourcePoint" />
            <mxPoint x="529" y="524" as="targetPoint" />
          </mxGeometry>
        </mxCell>
        <mxCell id="msg3" value="3: storyList" style="html=1;verticalAlign=bottom;endArrow=open;dashed=1;html=1;rounded=0;exitX=-0.147;exitY=0.836;exitDx=0;exitDy=0;exitPerimeter=0;fontColor=light-dark(#000000,#000000);strokeColor=light-dark(#000000,#000000);labelBackgroundColor=none;" parent="1" source="activation2" target="activation1" edge="1">
          <mxGeometry relative="1" as="geometry">
            <mxPoint x="509" y="564" as="sourcePoint" />
            <mxPoint x="339" y="564" as="targetPoint" />
          </mxGeometry>
        </mxCell>
        <mxCell id="msg4" value="4: checkContentWarnings(storyList)" style="html=1;verticalAlign=bottom;endArrow=block;rounded=0;fontColor=light-dark(#000000,#000000);strokeColor=light-dark(#000000,#000000);labelBackgroundColor=none;" parent="1" edge="1">
          <mxGeometry relative="1" as="geometry">
            <mxPoint x="339" y="604" as="sourcePoint" />
            <mxPoint x="699" y="604" as="targetPoint" />
          </mxGeometry>
        </mxCell>
        <mxCell id="msg5" value="5: warningData" style="html=1;verticalAlign=bottom;endArrow=open;dashed=1;html=1;rounded=0;fontColor=light-dark(#000000,#000000);strokeColor=light-dark(#000000,#000000);labelBackgroundColor=none;" parent="1" target="activation1" edge="1">
          <mxGeometry relative="1" as="geometry">
            <mxPoint x="699" y="644" as="sourcePoint" />
            <mxPoint x="339" y="644" as="targetPoint" />
          </mxGeometry>
        </mxCell>
        <mxCell id="msg6" value="6: displayStories(storyList, warningData)" style="html=1;verticalAlign=bottom;endArrow=open;dashed=1;html=1;rounded=0;fontColor=light-dark(#000000,#000000);strokeColor=light-dark(#000000,#000000);labelBackgroundColor=none;" parent="1" target="1iFyFIDcjB2l1iTBr6iN-1" edge="1">
          <mxGeometry relative="1" as="geometry">
            <mxPoint x="339" y="684" as="sourcePoint" />
            <mxPoint x="149" y="684" as="targetPoint" />
          </mxGeometry>
        </mxCell>
        <mxCell id="activation1" value="" style="html=1;points=[];perimeter=orthogonalPerimeter;outlineConnect=0;targetShapes=umlLifeline;portConstraint=eastwest;newEdgeStyle={&quot;edgeStyle&quot;:&quot;elbowEdgeStyle&quot;,&quot;elbow&quot;:&quot;vertical&quot;,&quot;curved&quot;:0,&quot;rounded&quot;:0};fontColor=light-dark(#000000,#000000);strokeColor=light-dark(#000000,#000000);fillColor=light-dark(#000000,#FFFFFF);" parent="1" vertex="1">
          <mxGeometry x="334" y="474" width="10" height="220" as="geometry" />
        </mxCell>
        <mxCell id="title2" value="Sequence Diagram #4: Anonymous User View Stories" style="text;html=1;strokeColor=none;fillColor=none;align=center;verticalAlign=middle;whiteSpace=wrap;rounded=0;fontSize=16;fontStyle=1;fontColor=light-dark(#000000,#000000);" parent="1" vertex="1">
          <mxGeometry x="49" y="358" width="730" height="20" as="geometry" />
        </mxCell>
        <mxCell id="vdpXJHdpHKEXjjT-I3mw-1" value="Actor" style="shape=umlActor;verticalLabelPosition=bottom;verticalAlign=top;html=1;outlineConnect=0;strokeColor=light-dark(#000000,#000000);fillColor=light-dark(#FFFFFF,#7EA6E0);" vertex="1" parent="1">
          <mxGeometry x="96.5" y="404" width="25" height="40" as="geometry" />
        </mxCell>
        <mxCell id="1iFyFIDcjB2l1iTBr6iN-1" value="" style="html=1;points=[];perimeter=orthogonalPerimeter;outlineConnect=0;targetShapes=umlLifeline;portConstraint=eastwest;newEdgeStyle={&quot;edgeStyle&quot;:&quot;elbowEdgeStyle&quot;,&quot;elbow&quot;:&quot;vertical&quot;,&quot;curved&quot;:0,&quot;rounded&quot;:0};fontColor=light-dark(#000000,#000000);strokeColor=light-dark(#000000,#000000);gradientColor=none;fillColor=light-dark(#000000,#FFFFFF);" parent="1" vertex="1">
          <mxGeometry x="104" y="474" width="10" height="220" as="geometry" />
        </mxCell>
        <mxCell id="msg1" value="1: getPublishedStories()" style="html=1;verticalAlign=bottom;endArrow=block;rounded=0;labelBackgroundColor=none;fontColor=light-dark(#000000,#000000);strokeColor=light-dark(#000000,#000000);" parent="1" target="activation1" edge="1">
          <mxGeometry relative="1" as="geometry">
            <mxPoint x="114" y="484" as="sourcePoint" />
            <mxPoint x="304" y="484" as="targetPoint" />
          </mxGeometry>
        </mxCell>
        <mxCell id="vdpXJHdpHKEXjjT-I3mw-3" value="" style="endArrow=none;dashed=1;html=1;rounded=0;strokeColor=light-dark(#000000,#000000);" edge="1" parent="1">
          <mxGeometry width="50" height="50" relative="1" as="geometry">
            <mxPoint x="109" y="801.9117087339744" as="sourcePoint" />
            <mxPoint x="108.74" y="462" as="targetPoint" />
          </mxGeometry>
        </mxCell>
        <mxCell id="vdpXJHdpHKEXjjT-I3mw-5" value="&lt;div style=&quot;&quot;&gt;&lt;font color=&quot;#ededed&quot;&gt;&lt;span style=&quot;&quot;&gt;Anonymous User&lt;/span&gt;&lt;/font&gt;&lt;/div&gt;" style="text;whiteSpace=wrap;html=1;labelBackgroundColor=light-dark(#FFFFFF,#FFFFFF);verticalAlign=middle;align=center;" vertex="1" parent="1">
          <mxGeometry x="57.81999999999999" y="441" width="102.36" height="25.88" as="geometry" />
        </mxCell>
      </root>
    </mxGraphModel>
  </diagram>
</mxfile>
